<svg viewBox="0 0 32 32" xml:space="preserve" xmlns="http://www.w3.org/2000/svg"><circle cx="17" cy="15" fill="#ffe100" r="8" class="fill-f2b035"></circle><path d="M5 31c-2.21 0-4-1.79-4-4s1.79-4 4-4c0-3.31 2.69-6 6-6 2.63 0 4.87 1.7 5.67 4.05A4.997 4.997 0 0 1 16 31H5z" fill="#5aadd6" class="fill-c9f9fb"></path><g fill="#343f57" class="fill-1a1a1a"><path d="M26 15c0-4.962-4.037-9-9-9s-9 4.038-9 9c0 .542.066 1.078.162 1.609a7.016 7.016 0 0 0-4.103 5.48A5.007 5.007 0 0 0 0 27c0 2.757 2.243 5 5 5h4v-2H5c-1.654 0-3-1.346-3-3s1.346-3 3-3a1 1 0 0 0 1-1c0-2.757 2.243-5 5-5a4.984 4.984 0 0 1 4.724 3.372c.122.36.438.62.816.669A3.997 3.997 0 0 1 16 30h-1v2h1c3.309 0 6-2.691 6-6a5.96 5.96 0 0 0-.844-3.041C24.117 21.417 26 18.392 26 15zm-6.182 6.396a5.924 5.924 0 0 0-2.419-1.228A6.985 6.985 0 0 0 11 16a7.01 7.01 0 0 0-.91.066A7.034 7.034 0 0 1 10 15c0-3.86 3.141-7 7-7s7 3.14 7 7a6.966 6.966 0 0 1-4.182 6.396zM16 0h2v4h-2zM5.687 5.1 7.1 3.687l2.828 2.829-1.414 1.414zM24.07 23.486l1.415-1.414 2.829 2.828-1.415 1.414zM24.072 6.515 26.9 3.686 28.314 5.1 25.486 7.93z"></path><path d="M2 14h4v2H2zM28 14h4v2h-4zM11 30h2v2h-2z"></path></g></svg>